<svg xmlns="http://www.w3.org/2000/svg" viewBox="0 0 842 595"><style>.st0{fill-rule:evenodd;clip-rule:evenodd;fill:#ef8121}.st1{fill:#fff}</style><path class="st0" d="M391.2 169.5l18.6-18.6V51.5l-18.6 18.6L278.3 183l-13.2 13.2 13.2 13.2 23.4 23.4-23.5 23.5-13.2 13.1 13.2 13.2 113 113 18.6 18.6v-99.6L391.2 296 328 232.7l63.2-63.2zm0 199.7l-99.8-99.8 23.5-23.5 76.3 76.3v47zm0-272.7v46.7l-76.3 76.3-23.4-23.4 99.7-99.6z" id="Layer_2"/><path class="st0" d="M451.7 169.5l-18.6-18.6V51.5l18.6 18.6L564.6 183l13.2 13.2-13.2 13.2-23.4 23.4 23.5 23.5 13.2 13.2-13.2 13.2-113 113-18.6 18.6v-99.6l18.6-18.6 63.1-63.1-63.1-63.5zm0 199.7l99.8-99.8-23.5-23.5-76.3 76.3v47zm0-272.7v46.7l76.3 76.3 23.4-23.4-99.7-99.6z" id="Layer_3"/><path class="st1" d="M116.4 541h59.4v-13.6h-44.6v-71.2h-14.9V541h.1zm143.8-85.3h-13.8L209.1 541h15.3c15.4-36.2 11.7-27.9 28.7-67.6 17.1 39.6 13.4 31.2 28.7 67.6h15.7l-37.3-85.3zm114.9.6h-38V541h39.2c4.7 0 9-.5 12.8-1.5 3.9-1 7.2-2.5 9.9-4.5s4.9-4.4 6.4-7.3c1.5-2.9 2.2-6.3 2.2-10 0-2.9-.4-5.5-1.2-7.7-.8-2.2-2-4.1-3.5-5.8-1.5-1.6-3.3-3-5.3-4.2-2.1-1.2-4.3-2.2-6.8-3.1 1.5-.8 3-1.8 4.5-2.9 1.5-1.1 2.8-2.4 3.9-3.9s2-3.2 2.7-5.3c.7-2 1-4.3 1-6.9 0-6.7-2.5-12-7.5-15.9-5-3.8-11.8-5.7-20.3-5.7zm-3 35.7h-20.3v-22.5h21.4c4.8 0 8.5.9 11.1 2.8 2.5 1.9 3.8 4.6 3.8 8.1 0 4-1.5 6.9-4.4 8.8-2.9 1.8-6.8 2.8-11.6 2.8zm4.3 35.8h-24.7v-23.2h23.6c5.9 0 10.3 1 13.1 3 2.9 2 4.3 4.8 4.3 8.5 0 3.9-1.5 6.8-4.4 8.8-2.8 1.9-6.8 2.9-11.9 2.9zm145 13.2l-22.9-32.1c3-.8 5.7-2 8.2-3.5 2.5-1.5 4.6-3.3 6.4-5.4 1.8-2.1 3.2-4.6 4.2-7.4 1-2.8 1.5-6 1.5-9.5 0-4.1-.7-7.8-2.2-11.2-1.5-3.4-3.5-6.2-6.2-8.5s-6-4.1-9.9-5.3c-3.9-1.2-8.3-1.9-13.1-1.9h-37.8V541h14.9v-29.5h18.6l20.8 29.5h17.5zm-17.8-57c0 4.4-1.6 7.8-4.7 10.4-3.1 2.6-7.4 3.9-12.7 3.9h-21.8v-28.5h21.7c5.6 0 9.9 1.2 13 3.6 3 2.4 4.5 5.9 4.5 10.6zm95.4 23.2l33.7-51h-17.1l-24 37.5-23.7-37.5h-17.6l33.7 51.3V541h15v-33.8zm80.1-28.8c0-2.8 1.2-5.2 3.6-7.2 2.4-2 5.8-3 10.2-3 3.9 0 7.7.8 11.5 2.2 3.8 1.5 7.6 3.7 11.5 6.5l8-11.3c-4.4-3.5-9-6.1-14-7.9-5-1.8-10.6-2.7-16.8-2.7-4.2 0-8.1.6-11.6 1.8-3.6 1.2-6.6 2.8-9.1 5s-4.5 4.8-6 7.8c-1.4 3-2.2 6.4-2.2 10.1 0 4 .6 7.3 1.9 10.1 1.3 2.7 3.1 5.1 5.4 7 2.4 1.9 5.3 3.6 8.8 4.8 3.5 1.3 7.5 2.5 12 3.5 4 1 7.2 1.9 9.6 2.8 2.5.9 4.4 1.8 5.8 2.8 1.4 1 2.4 2.1 2.9 3.3.5 1.2.8 2.6.8 4.1 0 3.3-1.4 5.9-4.1 7.9-2.7 1.9-6.4 2.9-11 2.9-5.3 0-10.1-1-14.3-2.8-4.2-1.9-8.4-4.6-12.5-8.2l-9 10.7c5.1 4.6 10.6 8 16.6 10.2 6 2.2 12.2 3.3 18.8 3.3 4.4 0 8.5-.6 12.2-1.7 3.7-1.1 6.9-2.8 9.6-5 2.7-2.2 4.7-4.8 6.2-8 1.5-3.1 2.2-6.7 2.2-10.8 0-3.6-.6-6.6-1.8-9.3-1.2-2.6-2.9-4.9-5.1-6.9-2.3-2-5.1-3.7-8.5-5-3.4-1.4-7.4-2.6-11.8-3.8-4-1-7.4-1.9-10-2.8-2.6-.9-4.7-1.9-6.2-2.9s-2.5-2.2-3.1-3.4c-.2-.9-.5-2.4-.5-4.1z" id="Layer_4"/></svg>